<mxfile host="app.diagrams.net" modified="2024-01-01T13:22:58.287Z" agent="Mozilla/5.0 (Windows NT 10.0; WOW64) AppleWebKit/537.36 (KHTML, like Gecko) Chrome/94.0.4606.71 Safari/537.36 Core/1.94.218.400 QQBrowser/12.1.5496.400" version="22.1.16" etag="etoezStisepvwRjRLoV2" type="github">
  <diagram name="第 1 页" id="2D0ksIejSf5_ONmcAR_H">
    <mxGraphModel>
      <root>
        <mxCell id="0" />
        <mxCell id="1" parent="0" />
      </root>
    </mxGraphModel>
  </diagram>
</mxfile>
